<?xml version="1.0" standalone="no"?>
<!DOCTYPE svg PUBLIC "-//W3C//DTD SVG 20010904//EN"
 "http://www.w3.org/TR/2001/REC-SVG-20010904/DTD/svg10.dtd">
<svg version="1.0" xmlns="http://www.w3.org/2000/svg"
 width="512.000000pt" height="512.000000pt" viewBox="0 0 512.000000 512.000000"
 preserveAspectRatio="xMidYMid meet">

<g transform="translate(0.000000,512.000000) scale(0.100000,-0.100000)"
fill="#000000" stroke="none">
<path d="M2405 4935 c-540 -242 -1222 -415 -1641 -415 -33 0 -65 -5 -72 -12
-19 -19 -17 -2005 3 -2151 16 -119 60 -297 100 -396 14 -36 25 -68 25 -73 0
-4 -26 -8 -58 -8 -32 0 -63 -5 -70 -12 -8 -8 -12 -67 -12 -200 l0 -188 -268 0
c-272 0 -292 -3 -292 -38 0 -7 52 -101 116 -208 l117 -194 -117 -194 c-64
-107 -116 -201 -116 -208 0 -37 9 -38 600 -38 435 0 579 3 588 12 8 8 12 67
12 200 l0 188 58 0 57 0 75 -77 c164 -167 396 -364 630 -534 145 -105 400
-269 419 -269 34 0 361 219 572 383 186 145 294 239 435 378 l121 119 56 0 57
0 0 -188 c0 -133 4 -192 12 -200 9 -9 153 -12 588 -12 591 0 600 1 600 38 0 7
-52 101 -116 208 l-117 194 117 194 c64 107 116 201 116 208 0 35 -20 38 -292
38 l-268 0 0 188 c0 133 -4 192 -12 200 -7 7 -38 12 -70 12 -32 0 -58 4 -58 8
0 5 11 37 25 73 40 99 84 277 100 396 20 146 22 2132 3 2151 -7 7 -39 12 -72
12 -428 0 -1115 176 -1676 430 -62 27 -117 50 -123 49 -7 -1 -75 -29 -152 -64z
m277 -74 c537 -234 1067 -377 1521 -412 l158 -12 -4 -1036 c-3 -1024 -3 -1037
-25 -1132 -26 -116 -54 -208 -94 -311 l-29 -78 -90 0 -90 0 17 31 c58 113 117
308 139 464 20 138 22 1887 2 1903 -6 6 -57 15 -112 21 -414 46 -896 178
-1364 375 -74 31 -142 56 -151 56 -9 0 -66 -21 -126 -46 -478 -202 -972 -339
-1385 -384 -57 -6 -110 -16 -117 -22 -10 -9 -12 -189 -9 -957 3 -929 4 -948
25 -1039 26 -112 71 -248 111 -336 l30 -66 -89 0 -89 0 -29 78 c-40 103 -68
195 -94 311 -22 95 -22 108 -25 1132 l-4 1036 158 12 c448 34 1039 195 1529
415 54 25 104 45 111 45 7 1 63 -21 125 -48z m-162 -524 l0 -294 -99 -12
c-538 -65 -967 -459 -1076 -986 -80 -387 38 -797 315 -1098 l62 -67 -272 0
-271 0 -39 83 c-48 104 -92 236 -116 352 -18 84 -19 148 -19 995 l0 905 30 3
c374 34 905 176 1350 360 66 28 123 50 128 51 4 1 7 -131 7 -292z m255 225
c414 -165 811 -275 1160 -323 88 -12 166 -23 173 -25 10 -3 12 -176 9 -916 -3
-890 -4 -915 -24 -1003 -29 -120 -67 -232 -113 -333 l-39 -82 -271 0 -272 0
62 68 c233 252 355 582 337 911 -33 613 -487 1097 -1100 1172 l-97 12 0 295
c0 231 3 293 13 289 6 -3 80 -32 162 -65z m-45 -616 c161 -25 162 -16 -14
-144 l-155 -112 -156 112 c-176 127 -175 119 -25 143 114 18 235 18 350 1z
m-390 -195 l175 -128 0 -143 0 -143 -225 -164 c-124 -89 -229 -163 -233 -163
-5 0 -66 18 -136 40 l-127 41 -67 202 c-37 111 -67 212 -67 223 0 28 169 191
259 249 80 52 208 115 231 114 8 0 94 -58 190 -128z m718 94 c40 -19 105 -55
143 -80 90 -58 259 -221 259 -249 0 -11 -30 -112 -67 -224 l-68 -203 -128 -40
c-71 -22 -134 -38 -141 -36 -7 3 -113 78 -234 167 l-222 161 0 139 0 139 178
130 c97 72 184 130 192 131 9 0 48 -16 88 -35z m-1349 -762 c1 -14 -303 -236
-307 -224 -1 4 4 53 12 107 24 158 70 289 154 434 l27 44 57 -174 c31 -96 57
-180 57 -187z m1885 238 c24 -47 56 -124 71 -171 24 -79 60 -271 53 -291 -3
-8 -269 179 -302 211 -5 5 17 88 50 190 66 206 56 201 128 61z m-806 -215
l219 -160 -42 -130 c-23 -72 -61 -191 -85 -263 l-44 -133 -276 0 -276 0 -86
263 -86 262 96 70 c53 39 153 111 222 162 69 50 128 91 132 90 3 -1 105 -74
226 -161z m-885 -135 c65 -21 122 -43 127 -47 4 -5 47 -128 94 -273 l86 -264
-82 -114 -82 -113 -230 2 -230 3 -48 90 c-60 113 -105 249 -124 378 -8 55 -13
104 -12 109 5 15 351 266 368 267 8 0 68 -17 133 -38z m1637 -92 c99 -72 180
-136 180 -142 0 -7 -7 -55 -15 -108 -19 -125 -64 -263 -123 -374 l-48 -90
-230 -3 -230 -2 -82 114 -82 113 88 269 87 269 120 42 c66 23 128 42 137 42 9
1 98 -58 198 -130z m-613 -653 l82 -113 -38 -114 -38 -114 -373 0 -373 0 -38
114 -38 114 82 113 82 114 285 0 285 0 82 -114z m-861 -233 c15 -49 29 -94 31
-100 4 -10 -24 -13 -122 -13 l-126 0 -102 100 -102 100 197 0 197 0 27 -87z
m1307 -13 l-102 -100 -126 0 c-98 0 -126 3 -122 13 2 6 16 51 31 100 l27 87
197 0 197 0 -102 -100z m987 -540 l0 -360 -1800 0 -1800 0 0 360 0 360 1800 0
1800 0 0 -360z m-3678 -232 l3 -192 180 -129 c99 -71 205 -146 235 -168 l55
-39 -462 0 -462 0 104 174 c58 96 105 179 105 186 0 7 -47 90 -105 186 l-104
174 224 0 225 0 2 -192z m4103 18 c-58 -96 -105 -179 -105 -186 0 -7 47 -90
105 -186 l104 -174 -462 0 -462 0 55 39 c30 22 136 97 235 168 l180 129 3 192
2 192 225 0 224 0 -104 -174z m-3545 -367 l0 -140 -32 23 c-65 45 -353 251
-357 254 -2 2 84 4 192 4 l197 0 0 -141z m643 43 c128 -113 262 -220 392 -313
135 -98 273 -189 285 -189 13 0 193 120 320 213 123 91 284 222 386 314 l81
73 114 0 114 -1 -102 -98 c-225 -217 -580 -491 -850 -656 l-63 -38 -62 38
c-272 166 -624 437 -852 657 l-101 97 113 1 113 0 112 -98z m637 -143 l0 -240
-30 18 c-100 59 -422 305 -545 417 l-50 45 313 1 312 0 0 -241z m655 195
c-112 -104 -444 -358 -545 -417 l-30 -18 0 240 0 241 313 0 312 -1 -50 -45z
m1094 42 c-4 -3 -292 -209 -356 -254 l-33 -23 0 140 0 141 197 0 c108 0 194
-2 192 -4z"/>
<path d="M1012 1708 c-6 -6 -12 -20 -12 -29 0 -32 25 -40 125 -37 80 2 100 6
109 21 8 12 8 22 0 35 -9 14 -29 18 -110 20 -69 2 -103 -1 -112 -10z"/>
<path d="M1412 1708 c-7 -7 -12 -20 -12 -29 0 -35 23 -40 205 -37 157 3 179 5
189 21 8 12 8 22 0 35 -10 15 -32 17 -190 20 -131 2 -183 -1 -192 -10z"/>
</g>
</svg>
